<svg xmlns="http://www.w3.org/2000/svg" viewBox="0 0 900 900"><defs><style>.cls-1{fill:#0071bc;}.cls-2{fill:#fff;}</style></defs><title>Repost</title><g id="Layer_2" data-name="Layer 2"><circle class="cls-1" cx="450" cy="450" r="450"/></g><g id="Layer_1" data-name="Layer 1"><path class="cls-2" d="M757.53,348.6c-25.5-10.77-50.38-7.84-74.27,5.55-4.81,2.69-9.77,5.16-14.38,8.16-3.12,2-5.4,1.67-8.31-.4-21.27-15.1-44.44-26.66-68.73-36-30.85-11.89-62.66-20-95.64-23-12.27-1.11-24.58-1.82-36.88-2.34-4.3-.18-6.62-1.37-8-5.81-11-35.43-22.28-70.78-33.49-106.15q-4.77-15.06-9.67-30.07c-3.46-10.56-11-14.89-21.75-12.62-39.47,8.37-78.94,16.67-118.39,25.14-4.52,1-7.67.51-10.91-3.44-20.76-25.28-51.26-26.81-76.88-12.74-29.37,16.13-36.34,58.41-14,84.41,16.66,19.42,37.92,25.9,62.22,19.33,23-6.21,37.44-21.82,42.62-45.35.83-3.77,2.69-5.34,6.34-6.11q48.5-10.23,96.93-20.79c3.71-.81,5,.74,6,3.74q8.85,27.8,17.79,55.56,8.49,26.37,17.06,52.72c1.7,5.23,1.27,6-4.14,6.29A358.42,358.42,0,0,0,252.85,351,197.93,197.93,0,0,0,235.63,362c-3.3,2.34-5.47,2-8.37-.68-19.33-17.86-42.64-21.81-67.51-17.46-24.35,4.25-42.13,18.36-53.85,40C89,415.1,95.25,451.39,122,476.59c4.93,4.64,10.55,8.57,16.07,12.53,2.27,1.63,3.21,3.08,2.69,6q-11.61,65.61,22.39,123c17.84,30.2,42.31,54,70.76,73.88,36.35,25.44,76.77,41.58,119.72,52,31.88,7.75,64.28,10.06,96.9,10.61a384.88,384.88,0,0,0,74-6.41c49.4-9.05,96.18-25.25,138.06-53.79,31.5-21.46,58.29-47.4,76.94-81.07,17.65-31.85,24.77-65.94,21.8-102.17a98.79,98.79,0,0,0-2.1-15.38c-.89-3.65.34-5.19,3.19-7,17.65-11.23,30.87-26.23,37.32-46.4C811.83,404.73,793.55,363.83,757.53,348.6ZM290.76,488.38c.18-26.62,22.92-50.34,50-49.78s49.5,22.08,49.51,48.45c0,28-22.07,50.59-49.46,50.59C315.28,539.08,290.59,514.44,290.76,488.38Zm290,166.35c-5.14,10.73-20.2,15-29.91,8.2-15.07-10.52-31.64-17.72-49.18-22.79a152.26,152.26,0,0,0-69.28-3.89,165.79,165.79,0,0,0-69.72,29.4c-10,7.25-26.06,1.9-30.21-9.79a14,14,0,0,1-.79-6.1c.94-7.81,4.62-14.34,11.24-18.53,10.65-6.74,21.21-13.87,32.58-19.2a184.68,184.68,0,0,1,80.66-17.42c10.52.5,21.13.3,31.53,1.66,23.29,3,45.72,9.33,66.34,20.93,9.33,5.24,18.68,10.65,24.69,20C582.2,642.61,583.74,648.52,580.76,654.73ZM558.59,537.68c-25.94-.18-49-22.87-49-48.65,0-28,21.91-50.3,49.63-50.33,27.29,0,48.72,21.71,49.42,48.91S585.42,537.87,558.59,537.68Z"/></g></svg>